<?xml version="1.0" encoding="utf-8"?>
<!-- Generator: Adobe Illustrator 16.0.0, SVG Export Plug-In . SVG Version: 6.00 Build 0)  -->
<!DOCTYPE svg PUBLIC "-//W3C//DTD SVG 1.1//EN" "http://www.w3.org/Graphics/SVG/1.1/DTD/svg11.dtd">
<svg version="1.1" id="Layer_1" xmlns="http://www.w3.org/2000/svg" xmlns:xlink="http://www.w3.org/1999/xlink" x="0px" y="0px"
	 width="3760.205px" height="774.505px" viewBox="0 0 3760.205 774.505" enable-background="new 0 0 3760.205 774.505"
	 xml:space="preserve">
<g>
	<g>
		<g>
			<defs>
				<path id="SVGID_1_" d="M355.309,235.308c0,66-54,120-120,120H120c-66,0-120-54-120-120V120C0,54,54,0,120,0h115.309
					c66,0,120,54,120,120V235.308z M725.784,120c0-66-54-120-120-120H490.476c-66,0-120,54-120,120v115.308c0,66,54,120,120,120
					h115.309c66,0,120-54,120-120V120z M355.309,490.476c0-66-54-120-120-120H120c-66,0-120,54-120,120v115.309c0,66,54,120,120,120
					h115.309c66,0,120-54,120-120V490.476z M725.784,490.477c0-66-54-120-120-120H490.476c-66,0-120,54-120,120v115.308
					c0,66,54,120,120,120h115.309c66,0,120-54,120-120V490.477z"/>
			</defs>
			<clipPath id="SVGID_2_">
				<use xlink:href="#SVGID_1_"  overflow="visible"/>
			</clipPath>
		</g>
		<g>
			<defs>
				<path id="SVGID_3_" d="M355.309,235.308c0,66-54,120-120,120H120c-66,0-120-54-120-120V120C0,54,54,0,120,0h115.309
					c66,0,120,54,120,120V235.308z M725.784,120c0-66-54-120-120-120H490.476c-66,0-120,54-120,120v115.308c0,66,54,120,120,120
					h115.309c66,0,120-54,120-120V120z M355.309,490.476c0-66-54-120-120-120H120c-66,0-120,54-120,120v115.309c0,66,54,120,120,120
					h115.309c66,0,120-54,120-120V490.476z M725.784,490.477c0-66-54-120-120-120H490.476c-66,0-120,54-120,120v115.308
					c0,66,54,120,120,120h115.309c66,0,120-54,120-120V490.477z"/>
			</defs>
			<clipPath id="SVGID_4_">
				<use xlink:href="#SVGID_3_"  overflow="visible"/>
			</clipPath>
			<g clip-path="url(#SVGID_4_)">
				<g>
					<g>
						<path fill="#373737" d="M355.309,235.354c0,66-54,120-120,120H120c-66,0-120-54-120-120V120.047c0-66,54-120,120-120h115.309
							c66,0,120,54,120,120V235.354z"/>
					</g>
					<g>
						<path fill="#313131" d="M725.784,605.831c0,66-54,120-120,120H490.476c-66,0-120-54-120-120V490.522c0-66,54-120,120-120
							h115.309c66,0,120,54,120,120V605.831z"/>
					</g>
					<g>
						<g>
							<path fill="#434343" d="M122.555,63.026c-31.508,15.061-54.779,43.24-65.896,76.114c-5.181,15.318-6.768,31.53-5.416,47.608
								c1.359,16.101,3.967,31.572,10.908,45.677c2.175,4.417,4.77,8.702,7.89,12.829c8.011,10.591,15.896,21.336,26.126,29.966
								c11.765,9.929,25.415,17.433,40.061,22.149c62.222,20.025,119.419-3.217,154.488-62.09c0.856-1.438,1.659-2.915,2.432-4.41
								c14.924-28.891,14.231-67.809,3.354-97.359c-11.709-31.811-35.574-56.021-64.396-69.751c-0.027-0.014-0.053-0.027-0.08-0.04
								C198.448,47.749,158.161,46.001,122.555,63.026z M176.926,219.438c-22.953-0.312-41.456-18.552-41.889-41.297
								c-0.439-23.315,18.31-42.229,42.008-42.364c23.873-0.134,42.474,18.193,42.396,41.783
								C219.368,201.073,200.409,219.753,176.926,219.438z"/>
						</g>
						<g>
							<path fill="#383938" d="M177.045,135.776c-23.698,0.135-42.447,19.049-42.008,42.364
								c0.433,22.745,18.936,40.985,41.889,41.297c23.483,0.315,42.442-18.364,42.516-41.878
								C219.519,153.97,200.918,135.643,177.045,135.776z"/>
						</g>
					</g>
					<g>
						<g>
							<path fill="#434343" d="M493.03,433.501c-31.508,15.062-54.78,43.241-65.896,76.115c-5.181,15.318-6.769,31.531-5.416,47.607
								c1.359,16.102,3.967,31.572,10.908,45.678c2.175,4.416,4.77,8.701,7.89,12.828c8.011,10.592,15.896,21.336,26.126,29.967
								c11.765,9.928,25.415,17.432,40.061,22.149c62.222,20.025,119.419-3.217,154.488-62.09c0.856-1.438,1.659-2.915,2.432-4.411
								c14.924-28.891,14.231-67.808,3.354-97.359c-11.709-31.811-35.574-56.021-64.396-69.75c-0.027-0.014-0.053-0.027-0.08-0.039
								C568.924,418.224,528.637,416.477,493.03,433.501z M547.401,589.913c-22.953-0.312-41.456-18.552-41.889-41.297
								c-0.439-23.315,18.31-42.229,42.008-42.365c23.873-0.133,42.474,18.193,42.396,41.784
								C589.844,571.549,570.885,590.229,547.401,589.913z"/>
						</g>
						<g>
							<path fill="#383938" d="M547.521,506.251c-23.698,0.136-42.447,19.05-42.008,42.365
								c0.433,22.745,18.936,40.985,41.889,41.297c23.483,0.315,42.442-18.364,42.516-41.878
								C589.994,524.444,571.394,506.118,547.521,506.251z"/>
						</g>
					</g>
					<g>
						<g>
							<path fill="#313131" d="M355.309,605.831c0,66-54,120-120,120H120c-66,0-120-54-120-120v-115.31c0-66,54-120,120-120h115.309
								c66,0,120,54,120,120V605.831z"/>
						</g>
						<g>
							<path fill="#373737" d="M0,725.831V490.522c0-66,54-120,120-120h235.309"/>
						</g>
					</g>
				</g>
				<g>
					<g>
						<path fill="#313131" d="M725.365,235.263c0,66-54,120-120,120H490.057c-66,0-120-54-120-120V119.954c0-66,54-120,120-120
							h115.309c66,0,120,54,120,120V235.263z"/>
					</g>
					<g>
						<path fill="#373737" d="M370.057,355.263V119.955c0-66,54-120,120-120h235.309"/>
					</g>
				</g>
			</g>
		</g>
		<g>
			<defs>
				<path id="SVGID_5_" d="M355.309,235.308c0,66-54,120-120,120H120c-66,0-120-54-120-120V120C0,54,54,0,120,0h115.309
					c66,0,120,54,120,120V235.308z M725.784,120c0-66-54-120-120-120H490.476c-66,0-120,54-120,120v115.308c0,66,54,120,120,120
					h115.309c66,0,120-54,120-120V120z M355.309,490.476c0-66-54-120-120-120H120c-66,0-120,54-120,120v115.309c0,66,54,120,120,120
					h115.309c66,0,120-54,120-120V490.476z M725.784,490.477c0-66-54-120-120-120H490.476c-66,0-120,54-120,120v115.308
					c0,66,54,120,120,120h115.309c66,0,120-54,120-120V490.477z"/>
			</defs>
			<clipPath id="SVGID_6_">
				<use xlink:href="#SVGID_5_"  overflow="visible"/>
			</clipPath>
		</g>
	</g>
	<g>
		<path fill="#434343" d="M1130.202,356.063h169.62v214.104c-62.206,27.006-123.932,40.506-185.171,40.506
			c-83.668,0-150.514-24.412-200.542-73.236c-50.033-48.824-75.044-109.041-75.044-180.649c0-75.463,25.915-138.273,77.757-188.426
			c51.836-50.146,116.816-75.226,194.936-75.226c28.447,0,55.453,3.074,81.013,9.222c25.554,6.148,57.865,17.422,96.925,33.815
			v73.779c-60.278-34.957-120.071-52.441-179.384-52.441c-55.216,0-101.752,18.807-139.602,56.42
			c-37.855,37.612-56.781,83.786-56.781,138.517c0,57.385,18.926,104.282,56.781,140.686c37.85,36.409,86.556,54.611,146.111,54.611
			c28.933,0,63.528-6.629,103.797-19.892l6.871-2.17V420.438h-97.287V356.063z"/>
		<path fill="#434343" d="M1466.91,272.157v76.311l3.616-5.787c31.826-51.355,63.652-77.033,95.479-77.033
			c24.831,0,50.752,12.539,77.758,37.612l-34.72,57.866c-22.909-21.7-44.123-32.55-63.652-32.55
			c-21.22,0-39.603,10.127-55.153,30.38c-15.552,20.253-23.327,44.247-23.327,71.971v173.959h-66.185V272.157H1466.91z"/>
		<path fill="#434343" d="M1723.689,132.194c10.85,0,20.129,3.74,27.848,11.211c7.714,7.477,11.573,16.637,11.573,27.486
			c0,10.612-3.859,19.772-11.573,27.486c-7.719,7.72-16.998,11.573-27.848,11.573c-10.126,0-19.049-3.916-26.763-11.754
			c-7.72-7.832-11.573-16.937-11.573-27.306c0-10.126,3.854-19.105,11.573-26.943
			C1704.64,136.115,1713.563,132.194,1723.689,132.194z M1691.139,272.157h65.823v332.729h-65.823V272.157z"/>
		<path fill="#434343" d="M2074.139,99.645h66.184v505.241h-140.687c-49.186,0-88.426-15.552-117.721-46.654
			c-29.294-31.103-43.941-72.813-43.941-125.135c0-48.943,15.37-89.206,46.111-120.795c30.741-31.584,69.981-47.378,117.721-47.378
			c22.181,0,46.293,4.701,72.333,14.104V99.645z M2074.139,548.467V337.618c-20.496-10.364-41.229-15.552-62.206-15.552
			c-32.793,0-58.895,10.731-78.3,32.188c-19.411,21.463-29.113,50.396-29.113,86.799c0,34.239,8.437,60.641,25.316,79.204
			c10.126,11.093,20.852,18.569,32.188,22.423c11.33,3.859,31.702,5.787,61.121,5.787H2074.139z"/>
		<path fill="#373737" d="M2363.831,393.195l-54.973-33.397c-34.482-21.056-59.013-41.767-73.599-62.144
			c-14.591-20.372-21.88-43.817-21.88-70.344c0-39.782,13.8-72.089,41.41-96.925c27.604-24.83,63.472-37.251,107.594-37.251
			c42.19,0,80.888,11.844,116.093,35.533v82.097c-36.408-35.019-75.586-52.531-117.54-52.531c-23.632,0-43.038,5.465-58.228,16.394
			s-22.784,24.915-22.784,41.964c0,15.134,5.594,29.306,16.783,42.513c11.188,13.212,29.182,27.079,53.978,41.607l55.244,32.691
			c61.625,36.811,92.439,83.662,92.439,140.562c0,40.507-13.563,73.418-40.688,98.734c-27.125,25.316-62.386,37.974-105.786,37.974
			c-49.91,0-95.36-15.336-136.347-46.021v-91.862c39.06,49.491,84.267,74.23,135.623,74.23c22.66,0,41.528-6.306,56.6-18.919
			c15.065-12.613,22.604-28.407,22.604-47.389C2430.376,449.959,2408.191,420.789,2363.831,393.195z"/>
		<path fill="#373737" d="M2726.068,272.157h124.559v502.348h-65.822V599.1c-28.742,7.713-53.006,11.572-72.807,11.572
			c-47.334,0-86.449-15.913-117.359-47.739c-30.912-31.826-46.361-72.208-46.361-121.156c0-51.836,16.049-93.065,48.158-123.688
			C2628.537,287.471,2671.752,272.157,2726.068,272.157z M2784.805,541.957V333.64h-41.682c-28.516,0-47.541,1.266-57.086,3.792
			c-9.545,2.531-17.818,6.018-24.824,10.471c-7.008,4.453-13.41,9.929-19.209,16.428c-18.123,20.462-27.182,45.738-27.182,75.824
			c0,33.945,10.207,61.691,30.623,83.233c20.418,21.541,46.813,32.313,79.193,32.313c7.492,0,13.652-0.47,18.484-1.407
			c4.832-0.938,15.461-4.114,31.895-9.517l5.074-1.413L2784.805,541.957z"/>
		<path fill="#373737" d="M3151.168,604.886V562.21c-13.986,15.303-29.961,27.209-47.92,35.708
			c-17.965,8.499-35.867,12.754-53.707,12.754c-20.977,0-40.326-5.243-58.047-15.731s-31.104-24.712-40.145-42.677
			c-9.041-17.958-13.563-47.796-13.563-89.511V272.157h65.822v189.629c0,34.918,5.002,59.302,15.01,73.146
			c10.002,13.845,27.543,20.768,52.621,20.768c31.34,0,57.984-15.309,79.928-45.932V272.157h65.822v332.729H3151.168z"/>
		<path fill="#373737" d="M3343.572,132.194c10.85,0,20.129,3.74,27.848,11.211c7.713,7.477,11.572,16.637,11.572,27.486
			c0,10.612-3.859,19.772-11.572,27.486c-7.719,7.72-16.998,11.573-27.848,11.573c-10.127,0-19.049-3.916-26.764-11.754
			c-7.719-7.832-11.572-16.937-11.572-27.306c0-10.126,3.854-19.105,11.572-26.943
			C3324.523,136.115,3333.445,132.194,3343.572,132.194z M3311.021,272.157h65.824v332.729h-65.824V272.157z"/>
		<path fill="#373737" d="M3694.021,99.645h66.184v505.241H3619.52c-49.186,0-88.426-15.552-117.721-46.654
			s-43.941-72.813-43.941-125.135c0-48.943,15.369-89.206,46.111-120.795c30.74-31.584,69.98-47.378,117.721-47.378
			c22.18,0,46.293,4.701,72.332,14.104V99.645z M3694.021,548.467V337.618c-20.496-10.364-41.229-15.552-62.205-15.552
			c-32.793,0-58.895,10.731-78.301,32.188c-19.41,21.463-29.113,50.396-29.113,86.799c0,34.239,8.438,60.641,25.316,79.204
			c10.127,11.093,20.852,18.569,32.188,22.423c11.33,3.859,31.703,5.787,61.121,5.787H3694.021z"/>
	</g>
</g>
</svg>
