<svg id="Layer_1" data-name="Layer 1" width="150" xmlns="http://www.w3.org/2000/svg" viewBox="0 0 508.34 130.56"><path d="M398.94,89.35A39.66,39.66,0,0,1,389.21,116Q379,128,363.9,128a25.08,25.08,0,0,1-16.49-5.85c-2.13-2-4.25-4-6.38-6-.31.15-.51.56-.61,1.21q-.07.47-.08,8.51l-.07,21.44c0,1.62-.58,2.43-1.75,2.43q-11.7,0-13.83-.31a1.79,1.79,0,0,1-1.75-2q0-9.74.15-29.19T323.24,89A232.85,232.85,0,0,0,321,55.53a9.37,9.37,0,0,1-.15-1.22,1,1,0,0,1,.76-1.06q2.9-.15,8.44-.84,7.44-1.36,8.36-1.36,1.29,0,1.67,4.56.22,3,.38,6a2,2,0,0,0,.46,1.21,5.1,5.1,0,0,0,1.21-1.06Q352.73,50.9,363.6,50.89q15,0,25.38,11.78A39.09,39.09,0,0,1,398.94,89.35ZM381.15,89a24.45,24.45,0,0,0-5.7-16,18.53,18.53,0,0,0-15-7.37q-8.82,0-14.44,7.6a25.74,25.74,0,0,0-5.16,16,25.46,25.46,0,0,0,5.32,16.12,18.21,18.21,0,0,0,14.89,7.37q8.67,0,14.59-7.68A25.58,25.58,0,0,0,381.15,89Z" transform="translate(-79.06 -19.13)" fill="#939d97"/><path d="M446.28,102.49a21.66,21.66,0,0,1-9,18.17q-8.21,6.23-20,6.23a28.71,28.71,0,0,1-5.17-.23q-1.29-.61-1.29-3.72a44.12,44.12,0,0,0-.42-5A44.11,44.11,0,0,1,410,113c0-.66.46-1.09,1.37-1.29a8.64,8.64,0,0,1,2.81,0l2.28.23q14.37,0,14.37-8.82,0-4.17-6.31-7.67-10.26-5.62-11.78-6.92a17.69,17.69,0,0,1-6.31-14.13q0-11.4,8.59-17.79,7.75-5.7,19.61-5.7a1.62,1.62,0,0,1,1.55,1A49.61,49.61,0,0,1,438,58a38.45,38.45,0,0,1,1.41,6.23c0,.56-.48.91-1.44,1.06-3.25.46-6.51.89-9.81,1.29q-5.85,1.6-5.85,6.39,0,3.42,6.16,6.91,9.12,5.1,11.55,7.37A20.08,20.08,0,0,1,446.28,102.49Z" transform="translate(-79.06 -19.13)" fill="#939d97"/><path d="M477,35q0,9.35-10.41,9.35T456,35a8.65,8.65,0,0,1,3.26-6.91,11.51,11.51,0,0,1,14.63.07A8.61,8.61,0,0,1,477,35Zm-.53,20.6q0,5.85-.72,17.66T475,91q0,5.55.22,16.6c.16,7.37.23,12.89.23,16.53,0,1.07-.45,1.6-1.37,1.6H459.27q-1.59,0-1.59-3.12,0-5.23.26-15.77T458.21,91q0-5.92-.87-17.78t-.88-17.79c0-.86.54-1.29,1.6-1.29a36.2,36.2,0,0,1,4.22.38,24.41,24.41,0,0,0,8.58,0,36.18,36.18,0,0,1,4.3-.38C476,54.16,476.45,54.64,476.45,55.61Z" transform="translate(-79.06 -19.13)" fill="#939d97"/><path d="M555.86,85.09q0,5.63-4.86,7.52-3.27,1.23-47,4.49,1,6.69,7.37,11.4A21.59,21.59,0,0,0,524.4,113a35.22,35.22,0,0,0,22-7.75l2.43-2a1.32,1.32,0,0,1,.8.16q.2.15,2.85,5.28a45.61,45.61,0,0,1,2.66,5.51c0,.3-.41.88-1.22,1.74q-11.16,11.86-28.65,11.86T497.2,117.28q-10.5-10.53-10.49-28.09a40.44,40.44,0,0,1,10-27.28q10.56-12.07,25.91-12.08a31,31,0,0,1,23.87,10.49Q555.87,70.51,555.86,85.09Zm-18.08-4.63a15.22,15.22,0,0,0-5-11.18,15.67,15.67,0,0,0-11.21-4.86A16.85,16.85,0,0,0,509.17,70a17.72,17.72,0,0,0-5.44,12.62c0,1.06.91,1.6,2.74,1.6A192.22,192.22,0,0,0,533.37,82C536.31,81.57,537.78,81.06,537.78,80.46Z" transform="translate(-79.06 -19.13)" fill="#939d97"/><path d="M587.4,117a11.52,11.52,0,0,1-2.73,7.75,9,9,0,0,1-7.22,3.19,8.86,8.86,0,0,1-7.22-3.34,11.3,11.3,0,0,1-2.59-7.6,11.05,11.05,0,0,1,2.66-7.53,9,9,0,0,1,7.15-3,9.3,9.3,0,0,1,7.18,3A10.76,10.76,0,0,1,587.4,117Zm-.3-78.43a203.88,203.88,0,0,1-2.81,35.19q-1.14,6-3,18-.3,3-4,3a10,10,0,0,1-3-.3q-1.22-.37-1.59-2.28-4.65-22.8-4.64-29.11v-41c0-2,.3-3,.91-3a33.13,33.13,0,0,1,4.18.38,35.17,35.17,0,0,0,4.26.38,36.22,36.22,0,0,0,4.29-.38,34.08,34.08,0,0,1,4.22-.38q1,0,1,2.85c0,1.9,0,4.68.07,8.36S587.1,36.76,587.1,38.58Z" transform="translate(-79.06 -19.13)" fill="#939d97"/><g id="color"><path d="M95.1,90.34a3,3,0,0,0-2-3.76,8.44,8.44,0,0,0-2.52-.37,10,10,0,1,0,0,20,8.44,8.44,0,0,0,2.52-.37,3,3,0,0,0,2-3.75A3,3,0,0,0,92.23,100V92.41A3,3,0,0,0,95.1,90.34Z" transform="translate(-79.06 -19.13)" fill="#ffb74d"/><path d="M183.5,86.49a3,3,0,0,0-2.25,3.6,3,3,0,0,0,2.93,2.27v7.72a3,3,0,0,0-2.93,2.27A3,3,0,0,0,183.5,106a10.48,10.48,0,0,0,2.31.28,10,10,0,1,0-2.31-19.75Z" transform="translate(-79.06 -19.13)" fill="#ffb74d"/><path d="M182.71,96.23a44.51,44.51,0,1,1-63.38-40.29,35.68,35.68,0,0,1,6.77-2.53,44.2,44.2,0,0,1,24.21,0,9.73,9.73,0,0,1,.13,1.64c0,6.77,6.19,10.91,6.64.89A44.55,44.55,0,0,1,182.71,96.23Z" transform="translate(-79.06 -19.13)" fill="#ffd54f"/><path d="M120,93.6v40.5a39.61,39.61,0,0,1-9-4.76V93.6Z" transform="translate(-79.06 -19.13)" fill="#00bcd4"/><path d="M166.29,95.07v39.7a44.19,44.19,0,0,1-10,5.3v-45Z" transform="translate(-79.06 -19.13)" fill="#00bcd4"/><path d="M138.41,129.3a7.22,7.22,0,0,1-7.21-7.21v-7.21a7.21,7.21,0,0,1,14.42,0v7.21A7.22,7.22,0,0,1,138.41,129.3Z" transform="translate(-79.06 -19.13)" fill="#e53935"/></g><g id="regular"><path d="M138.41,145.68a49.46,49.46,0,1,1,49.46-49.45A49.51,49.51,0,0,1,138.41,145.68Zm0-91.49a42,42,0,1,0,42,42A42.09,42.09,0,0,0,138.41,54.19Z" transform="translate(-79.06 -19.13)" fill="#939d97"/><path d="M91.43,108.59a12.37,12.37,0,1,1,0-24.73,10.75,10.75,0,0,1,3.12.46,3.71,3.71,0,1,1-2.19,7.09,3.37,3.37,0,0,0-.93-.13,4.95,4.95,0,1,0,0,9.89,3,3,0,0,0,.93-.13,3.72,3.72,0,0,1,2.19,7.1A10.75,10.75,0,0,1,91.43,108.59Z" transform="translate(-79.06 -19.13)" fill="#939d97"/><path d="M138.41,71.5A20.75,20.75,0,0,1,129,69.26a3.71,3.71,0,1,1,3.37-6.6,13.61,13.61,0,1,0-7.52-12.18,10.36,10.36,0,0,0,.24,2.39,3.7,3.7,0,0,1-7.2,1.75,17.15,17.15,0,0,1-.46-4.14,21,21,0,1,1,21,21Z" transform="translate(-79.06 -19.13)" fill="#939d97"/><path d="M129.77,96.3H107.52a3.71,3.71,0,1,1,0-7.42h22.25a3.71,3.71,0,0,1,0,7.42Z" transform="translate(-79.06 -19.13)" fill="#939d97"/><path d="M110,135.74a3.72,3.72,0,0,1-3.71-3.71V92.57a3.71,3.71,0,0,1,7.42,0V132A3.71,3.71,0,0,1,110,135.74Z" transform="translate(-79.06 -19.13)" fill="#939d97"/><path d="M119.86,141.73a3.71,3.71,0,0,1-3.7-3.71V92.57a3.71,3.71,0,1,1,7.41,0V138A3.72,3.72,0,0,1,119.86,141.73Z" transform="translate(-79.06 -19.13)" fill="#939d97"/><path d="M169.32,96.3H147.07a3.71,3.71,0,1,1,0-7.42h22.25a3.71,3.71,0,1,1,0,7.42Z" transform="translate(-79.06 -19.13)" fill="#939d97"/><path d="M166.85,135.74a3.71,3.71,0,0,1-3.71-3.71V92.57a3.71,3.71,0,0,1,7.42,0V132A3.71,3.71,0,0,1,166.85,135.74Z" transform="translate(-79.06 -19.13)" fill="#939d97"/><path d="M157,141.73a3.72,3.72,0,0,1-3.71-3.71V92.57a3.71,3.71,0,1,1,7.42,0V138A3.72,3.72,0,0,1,157,141.73Z" transform="translate(-79.06 -19.13)" fill="#939d97"/><path d="M138.41,133.32a9.91,9.91,0,0,1-9.89-9.89v-9.89a9.89,9.89,0,1,1,19.78,0v9.89A9.9,9.9,0,0,1,138.41,133.32Zm0-22.26a2.48,2.48,0,0,0-2.47,2.48v9.89a2.47,2.47,0,1,0,4.94,0v-9.89A2.48,2.48,0,0,0,138.41,111.06Z" transform="translate(-79.06 -19.13)" fill="#939d97"/><path d="M185.39,108.59a12.4,12.4,0,0,1-2.86-.34A3.71,3.71,0,0,1,184.2,101a5.24,5.24,0,0,0,1.19.15,4.95,4.95,0,0,0,0-9.89,5.24,5.24,0,0,0-1.19.15,3.71,3.71,0,0,1-1.67-7.23,12.36,12.36,0,1,1,2.86,24.39Z" transform="translate(-79.06 -19.13)" fill="#939d97"/></g><g id="color-2" data-name="color"><path d="M214.46,90.34a3,3,0,0,0-2-3.76,8.44,8.44,0,0,0-2.52-.37,10,10,0,1,0,0,20,8.44,8.44,0,0,0,2.52-.37,3,3,0,0,0,2-3.75,3,3,0,0,0-2.87-2.08V92.41A3,3,0,0,0,214.46,90.34Z" transform="translate(-79.06 -19.13)" fill="#ffb74d"/><path d="M302.86,86.49a3,3,0,0,0-2.25,3.6,3,3,0,0,0,2.93,2.27v7.72a3,3,0,0,0-2.93,2.27,3,3,0,0,0,2.25,3.61,10.48,10.48,0,0,0,2.31.28,10,10,0,1,0-2.31-19.75Z" transform="translate(-79.06 -19.13)" fill="#ffb74d"/><path d="M302.07,96.23a44.51,44.51,0,1,1-63.38-40.29,35.68,35.68,0,0,1,6.77-2.53,44.2,44.2,0,0,1,24.21,0,9.73,9.73,0,0,1,.13,1.64c0,6.77,6.19,10.91,6.64.89A44.55,44.55,0,0,1,302.07,96.23Z" transform="translate(-79.06 -19.13)" fill="#ffd54f"/><path d="M239.4,93.6v40.5a39.61,39.61,0,0,1-9-4.76V93.6Z" transform="translate(-79.06 -19.13)" fill="#00bcd4"/><path d="M285.65,95.07v39.7a44.19,44.19,0,0,1-10,5.3v-45Z" transform="translate(-79.06 -19.13)" fill="#00bcd4"/><path d="M257.77,129.3a7.22,7.22,0,0,1-7.21-7.21v-7.21a7.21,7.21,0,0,1,14.42,0v7.21A7.22,7.22,0,0,1,257.77,129.3Z" transform="translate(-79.06 -19.13)" fill="#e53935"/></g><g id="regular-2" data-name="regular"><path d="M257.77,145.68a49.46,49.46,0,1,1,49.46-49.45A49.51,49.51,0,0,1,257.77,145.68Zm0-91.49a42,42,0,1,0,42,42A42.09,42.09,0,0,0,257.77,54.19Z" transform="translate(-79.06 -19.13)" fill="#939d97"/><path d="M210.79,108.59a12.37,12.37,0,1,1,0-24.73,10.75,10.75,0,0,1,3.12.46,3.71,3.71,0,1,1-2.19,7.09,3.37,3.37,0,0,0-.93-.13,4.95,4.95,0,1,0,0,9.89,3,3,0,0,0,.93-.13,3.72,3.72,0,0,1,2.19,7.1A10.75,10.75,0,0,1,210.79,108.59Z" transform="translate(-79.06 -19.13)" fill="#939d97"/><path d="M257.77,71.5a20.75,20.75,0,0,1-9.45-2.24,3.71,3.71,0,1,1,3.37-6.6,13.61,13.61,0,1,0-7.52-12.18,10.36,10.36,0,0,0,.24,2.39,3.7,3.7,0,0,1-7.2,1.75,17.15,17.15,0,0,1-.46-4.14,21,21,0,1,1,21,21Z" transform="translate(-79.06 -19.13)" fill="#939d97"/><path d="M249.13,96.3H226.88a3.71,3.71,0,0,1,0-7.42h22.25a3.71,3.71,0,1,1,0,7.42Z" transform="translate(-79.06 -19.13)" fill="#939d97"/><path d="M229.33,135.74a3.72,3.72,0,0,1-3.71-3.71V92.57a3.71,3.71,0,1,1,7.42,0V132A3.71,3.71,0,0,1,229.33,135.74Z" transform="translate(-79.06 -19.13)" fill="#939d97"/><path d="M239.22,141.73a3.71,3.71,0,0,1-3.7-3.71V92.57a3.71,3.71,0,1,1,7.41,0V138A3.72,3.72,0,0,1,239.22,141.73Z" transform="translate(-79.06 -19.13)" fill="#939d97"/><path d="M288.68,96.3H266.43a3.71,3.71,0,1,1,0-7.42h22.25a3.71,3.71,0,0,1,0,7.42Z" transform="translate(-79.06 -19.13)" fill="#939d97"/><path d="M286.21,135.74A3.71,3.71,0,0,1,282.5,132V92.57a3.71,3.71,0,0,1,7.42,0V132A3.71,3.71,0,0,1,286.21,135.74Z" transform="translate(-79.06 -19.13)" fill="#939d97"/><path d="M276.32,141.73a3.72,3.72,0,0,1-3.71-3.71V92.57a3.71,3.71,0,1,1,7.42,0V138A3.72,3.72,0,0,1,276.32,141.73Z" transform="translate(-79.06 -19.13)" fill="#939d97"/><path d="M257.77,133.32a9.91,9.91,0,0,1-9.89-9.89v-9.89a9.89,9.89,0,1,1,19.78,0v9.89A9.9,9.9,0,0,1,257.77,133.32Zm0-22.26a2.48,2.48,0,0,0-2.47,2.48v9.89a2.47,2.47,0,0,0,4.94,0v-9.89A2.48,2.48,0,0,0,257.77,111.06Z" transform="translate(-79.06 -19.13)" fill="#939d97"/><path d="M304.75,108.59a12.4,12.4,0,0,1-2.86-.34,3.71,3.71,0,1,1,1.67-7.23,5.24,5.24,0,0,0,1.19.15,4.95,4.95,0,1,0,0-9.89,5.24,5.24,0,0,0-1.19.15,3.71,3.71,0,0,1-1.67-7.23,12.36,12.36,0,1,1,2.86,24.39Z" transform="translate(-79.06 -19.13)" fill="#939d97"/></g></svg>