<?xml version="1.0" encoding="utf-8"?>
<!-- Generator: Adobe Illustrator 16.0.0, SVG Export Plug-In . SVG Version: 6.00 Build 0)  -->
<!DOCTYPE svg PUBLIC "-//W3C//DTD SVG 1.1//EN" "http://www.w3.org/Graphics/SVG/1.1/DTD/svg11.dtd">
<svg version="1.1" id="Layer_1" xmlns="http://www.w3.org/2000/svg" xmlns:xlink="http://www.w3.org/1999/xlink" x="0px" y="0px"
	 width="231.858px" height="39.638px" viewBox="0.462 8.605 231.858 39.638" enable-background="new 0.462 8.605 231.858 39.638"
	 xml:space="preserve">
<g>
	<g>
		<g>
			<path fill="#ED2024" d="M60.213,26.104h-2.92c-4.988,0-7.482-1.511-7.482-4.536c0-1.366,0.773-2.489,2.319-3.369
				c1.546-0.879,3.864-1.319,6.956-1.319c2.169,0,4.185,0.253,6.047,0.755c1.861,0.504,3.398,1.226,4.611,2.166l-1.461,1.127
				c-2.136-1.468-5.202-2.204-9.198-2.204c-2.562,0-4.441,0.265-5.636,0.793c-1.196,0.53-1.793,1.214-1.793,2.05
				c0,0.975,0.418,1.666,1.255,2.077c0.837,0.41,2.297,0.614,4.382,0.614h2.92c4.749,0,8.413,1.081,10.992,3.242
				s3.869,5.052,3.869,8.673c0,1.657-0.367,3.211-1.102,4.664c-0.734,1.45-1.79,2.729-3.164,3.83
				c-1.375,1.101-3.13,1.973-5.265,2.612c-2.136,0.642-4.51,0.962-7.124,0.962c-3.297,0-6.38-0.5-9.25-1.499
				c-2.87-1-5.262-2.396-7.175-4.188l1.486-1.103c1.742,1.571,3.92,2.788,6.534,3.651c2.613,0.862,5.415,1.294,8.404,1.294
				c4.612,0,8.233-0.975,10.863-2.922c2.63-1.946,3.945-4.381,3.945-7.302c0-3.091-1.127-5.543-3.382-7.354
				C67.593,27.01,64.381,26.104,60.213,26.104z M60.213,33.483h-2.92c-4.749,0-8.413-1.08-10.992-3.241
				c-2.58-2.161-3.869-5.052-3.869-8.674c0-1.656,0.367-3.21,1.101-4.663c0.735-1.452,1.79-2.729,3.165-3.831
				c1.374-1.102,3.13-1.973,5.265-2.614s4.509-0.96,7.123-0.96c3.296,0,6.38,0.5,9.25,1.499c2.87,1,5.261,2.396,7.174,4.19
				l-1.486,1.102c-1.743-1.571-3.919-2.789-6.533-3.651c-2.613-0.862-5.416-1.294-8.405-1.294c-4.611,0-8.233,0.974-10.863,2.921
				c-2.631,1.947-3.945,4.381-3.945,7.301c0,3.093,1.126,5.544,3.382,7.355c2.254,1.811,5.465,2.715,9.634,2.715h2.818
				c5.056,0,7.584,1.513,7.584,4.536c0,1.366-0.773,2.489-2.32,3.369c-1.545,0.881-3.865,1.319-6.956,1.319
				c-2.169,0-4.185-0.252-6.047-0.756c-1.862-0.503-3.399-1.226-4.611-2.165l1.46-1.128c2.135,1.47,5.202,2.204,9.198,2.204
				c2.562,0,4.44-0.264,5.637-0.795c1.195-0.528,1.793-1.212,1.793-2.049c0-0.974-0.418-1.666-1.256-2.076
				C63.758,33.688,62.298,33.483,60.213,33.483z M60.213,29.794h-2.92c-3.587,0-6.346-0.73-8.276-2.191
				c-1.93-1.46-2.896-3.472-2.896-6.035c0-2.391,1.136-4.385,3.408-5.982c2.271-1.598,5.458-2.396,9.557-2.396
				c2.732,0,5.282,0.375,7.649,1.127c2.365,0.752,4.335,1.811,5.905,3.178l-1.434,1.153c-1.401-1.145-3.16-2.033-5.278-2.664
				c-2.117-0.632-4.398-0.948-6.841-0.948c-3.604,0-6.358,0.614-8.263,1.845c-1.904,1.229-2.856,2.793-2.856,4.688
				c0,2.05,0.782,3.626,2.344,4.729c1.563,1.102,3.891,1.652,6.982,1.652h2.818c3.639,0,6.427,0.731,8.366,2.191
				c1.938,1.46,2.908,3.472,2.908,6.035c0,2.392-1.136,4.386-3.408,5.982c-2.272,1.598-5.458,2.396-9.557,2.396
				c-2.733,0-5.283-0.375-7.649-1.127c-2.366-0.751-4.334-1.811-5.907-3.178l1.436-1.152c1.4,1.144,3.16,2.032,5.278,2.665
				c2.118,0.631,4.398,0.947,6.841,0.947c3.604,0,6.358-0.614,8.263-1.845c1.904-1.229,2.857-2.792,2.857-4.688
				c0-2.05-0.782-3.626-2.345-4.728C65.634,30.344,63.305,29.794,60.213,29.794z"/>
			<path fill="#ED2024" d="M79.098,10.449h1.845v36.897h-1.845V10.449z M82.788,10.449h1.844v36.897h-1.844V10.449z M86.478,10.449
				h1.845v36.897h-1.845V10.449z M90.167,10.449h1.845v36.897h-1.845V10.449z"/>
			<path fill="#ED2024" d="M110.766,37.096h11.121c2.271,0,4.372-0.546,6.303-1.64c1.931-1.092,3.472-2.613,4.625-4.56
				c1.153-1.948,1.729-4.1,1.729-6.458c0-2.134-0.573-4.137-1.718-6.007c-1.144-1.87-2.694-3.361-4.649-4.472
				c-1.956-1.11-4.053-1.665-6.29-1.665H98.673v35.052h-1.844V10.449h25.059c1.93,0,3.787,0.38,5.573,1.14
				c1.785,0.76,3.326,1.768,4.624,3.023c1.298,1.255,2.34,2.746,3.126,4.471c0.785,1.725,1.179,3.51,1.179,5.354
				c0,2.99-0.684,5.6-2.05,7.829s-3.203,3.925-5.509,5.086l3.869,9.993h-1.974l-3.664-9.25c-0.462,0.154-0.999,0.308-1.614,0.462
				l3.458,8.789h-1.972l-3.383-8.48c-0.53,0.051-1.085,0.077-1.665,0.077l3.253,8.403h-1.946l-3.229-8.404h-1.666l3.101,8.404
				h-1.947l-3.125-8.404h-5.56L110.766,37.096L110.766,37.096z M110.766,33.406h11.121c2.46,0,4.569-0.836,6.328-2.51
				c1.759-1.674,2.64-3.827,2.64-6.458c0-2.237-0.897-4.206-2.69-5.905c-1.793-1.7-3.887-2.55-6.278-2.55h-19.523v31.362h-1.845
				V14.139h21.369c2.904,0,5.432,1.029,7.585,3.087c2.151,2.059,3.228,4.463,3.228,7.212c0,3.076-1.064,5.647-3.19,7.713
				c-2.128,2.067-4.668,3.101-7.623,3.101h-11.12V33.406z M110.766,29.717h11.121c1.47,0,2.716-0.46,3.74-1.383
				c1.024-0.922,1.537-2.22,1.537-3.896c0-1.229-0.534-2.331-1.602-3.305c-1.068-0.974-2.294-1.46-3.677-1.46h-15.834v27.673h-1.845
				V17.828h17.68c1.896,0,3.557,0.666,4.983,1.998c1.426,1.333,2.141,2.87,2.141,4.612c0,2.169-0.692,3.9-2.076,5.188
				c-1.384,1.29-3.065,1.935-5.048,1.935h-11.121V29.717z M109.742,47.346h-1.844V21.518h13.99c0.957,0,1.768,0.287,2.434,0.858
				c0.666,0.573,0.999,1.261,0.999,2.063c0,2.29-1.144,3.434-3.433,3.434h-11.121v-1.845h11.121c1.059,0,1.589-0.53,1.589-1.589
				c0-0.29-0.159-0.541-0.474-0.755c-0.317-0.214-0.688-0.32-1.115-0.32h-12.146V47.346z"/>
			<path fill="#ED2024" d="M175.105,47.346h-1.846V24.284c0-1.861-0.413-3.647-1.241-5.354c-0.829-1.708-1.943-3.181-3.345-4.42
				c-1.4-1.239-3.065-2.224-4.995-2.959c-1.931-0.734-3.946-1.102-6.047-1.102c-2.888,0-5.505,0.542-7.854,1.626
				c-2.35,1.085-4.233,2.691-5.651,4.817C142.71,19.019,142,21.484,142,24.284v23.062h-1.845V24.284
				c0-2.356,0.461-4.526,1.383-6.508c0.923-1.981,2.174-3.637,3.754-4.97c1.581-1.332,3.433-2.365,5.561-3.101
				c2.126-0.734,4.386-1.101,6.778-1.101c4.235,0,7.908,1.067,11.017,3.203c3.108-2.135,6.78-3.203,11.018-3.203
				c2.391,0,4.65,0.367,6.777,1.101c2.127,0.735,3.979,1.768,5.56,3.101c1.58,1.333,2.831,2.989,3.754,4.97
				c0.921,1.982,1.384,4.152,1.384,6.508v23.062h-1.846V24.284c0-2.784-0.708-5.239-2.127-7.366c-1.417-2.125-3.3-3.736-5.649-4.83
				c-2.35-1.093-4.966-1.64-7.854-1.64c-3.62,0-6.779,0.854-9.479,2.562c0.392,0.342,0.828,0.786,1.307,1.332
				c2.34-1.367,5.064-2.05,8.172-2.05c1.896,0,3.681,0.272,5.355,0.819c1.674,0.547,3.135,1.319,4.383,2.318
				c1.245,1,2.232,2.26,2.958,3.78c0.726,1.521,1.089,3.211,1.089,5.073v23.061h-1.845V24.284c0-1.605-0.313-3.057-0.935-4.356
				c-0.624-1.297-1.482-2.365-2.575-3.202c-1.094-0.837-2.357-1.478-3.792-1.922c-1.436-0.444-2.98-0.666-4.639-0.666
				c-2.714,0-5.063,0.556-7.045,1.666c0.308,0.478,0.614,1.008,0.922,1.588c1.674-0.938,3.714-1.409,6.122-1.409
				c1.897,0,3.592,0.293,5.087,0.884c1.495,0.589,2.703,1.524,3.625,2.805c0.923,1.281,1.385,2.818,1.385,4.611v23.061h-1.845
				v-23.06c0-2.169-0.766-3.788-2.295-4.855c-1.528-1.066-3.515-1.601-5.957-1.601c-2.22,0-4.021,0.41-5.404,1.229
				c0.221,0.649,0.393,1.264,0.512,1.845c1.076-0.82,2.707-1.23,4.893-1.23c4.271,0,6.406,1.538,6.406,4.612v23.061h-1.845V24.284
				c0-0.495-0.082-0.918-0.243-1.268c-0.162-0.35-0.371-0.618-0.628-0.807c-0.258-0.188-0.594-0.337-1.013-0.448
				c-0.418-0.111-0.824-0.179-1.217-0.205c-0.392-0.026-0.88-0.039-1.461-0.039c-0.579,0-1.066,0.013-1.458,0.039
				c-0.395,0.026-0.8,0.094-1.219,0.205c-0.417,0.111-0.756,0.26-1.012,0.448s-0.465,0.458-0.627,0.807
				c-0.163,0.35-0.243,0.772-0.243,1.268L175.105,47.346L175.105,47.346z M171.416,24.284v23.062h-1.846V24.284
				c0-1.605-0.311-3.057-0.935-4.356c-0.623-1.297-1.481-2.365-2.574-3.202c-1.094-0.837-2.357-1.478-3.792-1.922
				c-1.436-0.444-2.981-0.666-4.638-0.666c-1.657,0-3.204,0.222-4.64,0.666c-1.435,0.444-2.698,1.085-3.791,1.922
				c-1.094,0.836-1.952,1.904-2.575,3.202c-0.624,1.298-0.936,2.751-0.936,4.356v23.062h-1.845V24.284
				c0-1.861,0.362-3.552,1.088-5.073c0.726-1.52,1.714-2.78,2.96-3.779c1.247-1,2.707-1.772,4.382-2.319
				c1.674-0.546,3.458-0.819,5.355-0.819c1.896,0,3.68,0.273,5.354,0.819c1.673,0.546,3.134,1.319,4.382,2.319
				c1.246,0.999,2.232,2.259,2.959,3.779C171.052,20.732,171.416,22.423,171.416,24.284z M167.726,24.284v23.062h-1.846V24.284
				c0-2.169-0.764-3.788-2.293-4.855c-1.528-1.066-3.514-1.601-5.956-1.601c-2.443,0-4.43,0.535-5.958,1.601
				c-1.529,1.068-2.293,2.686-2.293,4.855v23.062h-1.846V24.284c0-1.793,0.462-3.331,1.385-4.611
				c0.921-1.281,2.13-2.216,3.625-2.806c1.494-0.588,3.191-0.884,5.087-0.884c1.895,0,3.591,0.293,5.085,0.884
				c1.495,0.591,2.703,1.524,3.626,2.806C167.264,20.953,167.726,22.491,167.726,24.284z M164.037,24.284v23.062h-1.846V24.284
				c0-0.495-0.081-0.918-0.243-1.268c-0.164-0.35-0.371-0.618-0.628-0.807c-0.256-0.188-0.594-0.337-1.012-0.448
				c-0.419-0.111-0.825-0.179-1.218-0.205s-0.88-0.039-1.459-0.039c-0.582,0-1.068,0.013-1.462,0.039
				c-0.393,0.026-0.799,0.094-1.217,0.205s-0.756,0.26-1.012,0.448c-0.257,0.188-0.466,0.458-0.628,0.807s-0.243,0.772-0.243,1.268
				v23.062h-1.846V24.284c0-3.074,2.136-4.611,6.407-4.611C161.901,19.673,164.037,21.211,164.037,24.284z"/>
			<path fill="#ED2024" d="M203.597,47.346h-1.845V10.449h1.845V47.346z M207.287,47.346h-1.845V10.449h1.845V47.346z
				 M210.976,47.346h-1.845V10.449h1.845V47.346z M214.667,38.121h17.653v1.844h-17.653v1.846h17.653v1.845h-17.653V45.5h17.653
				v1.846h-19.499V10.449h19.499v1.845h-17.653v1.845h17.653v1.845h-17.653v1.845h17.653v1.845h-17.653v4.586h16.628v1.845h-16.628
				v1.844h16.628v1.845h-16.628v1.845h16.628v1.845h-16.628V38.121L214.667,38.121z"/>
		</g>
	</g>
	<g>
		<polygon fill="#ED2024" points="18.544,29.432 0.743,19.133 18.525,8.996 36.345,19.119 		"/>
		<polygon fill="#3953A4" points="18.356,29.767 18.356,47.852 0.462,37.589 0.462,19.421 		"/>
		<polygon fill="#0B8140" points="18.732,29.767 18.732,47.852 36.626,37.589 36.626,19.421 		"/>
	</g>
</g>
</svg>
